<svg width="427" height="427" xmlns="http://www.w3.org/2000/svg" xmlns:xlink="http://www.w3.org/1999/xlink" xml:space="preserve" overflow="hidden"><defs><clipPath id="clip0"><rect x="0" y="0" width="427" height="427"/></clipPath><clipPath id="clip1"><path d="M0 213.5C-2.71814e-14 95.5872 95.5872-2.71814e-14 213.5-5.43628e-14 331.413-1.08726e-13 427 95.5872 427 213.5 427 331.413 331.413 427 213.5 427 95.5872 427-1.35907e-13 331.413 0 213.5Z" fill-rule="evenodd" clip-rule="evenodd"/></clipPath><clipPath id="clip2"><path d="M213.5 26.0603C109.979 26.0603 26.0603 109.979 26.0603 213.5 26.0603 317.021 109.979 400.939 213.5 400.939 317.021 400.939 400.939 317.021 400.939 213.5 400.939 109.979 317.021 26.0603 213.5 26.0603Z"/></clipPath><clipPath id="clip3"><path d="M213.5 38.3054C116.74 38.3054 38.3054 116.74 38.3054 213.5 38.3054 310.26 116.74 388.694 213.5 388.694 310.26 388.694 388.694 310.26 388.694 213.5 388.694 116.74 310.26 38.3054 213.5 38.3054Z"/></clipPath><clipPath id="clip4"><path d="M213.5 52.1206C124.373 52.1206 52.1206 124.373 52.1206 213.5 52.1206 302.627 124.373 374.88 213.5 374.88 302.627 374.88 374.88 302.627 374.88 213.5 374.88 124.373 302.627 52.1206 213.5 52.1206Z"/></clipPath><clipPath id="clip5"><path d="M213.5 19.7043C209.991 19.7043 207.144 22.551 207.144 26.0603 207.144 29.5698 209.991 32.4165 213.5 32.4165 217.009 32.4165 219.856 29.5698 219.856 26.0603 219.856 22.551 217.009 19.7043 213.5 19.7043Z"/></clipPath><clipPath id="clip6"><path d="M52.1206 207.144C48.6113 207.144 45.7646 209.991 45.7646 213.5 45.7646 217.009 48.6113 219.856 52.1206 219.856 55.6301 219.856 58.4768 217.009 58.4768 213.5 58.4768 209.991 55.6301 207.144 52.1206 207.144Z"/></clipPath><clipPath id="clip7"><path d="M374.88 207.144C371.37 207.144 368.524 209.991 368.524 213.5 368.524 217.009 371.37 219.856 374.88 219.856 378.389 219.856 381.236 217.009 381.236 213.5 381.236 209.991 378.389 207.144 374.88 207.144Z"/></clipPath><clipPath id="clip8"><path d="M213.5 394.583C209.991 394.583 207.144 397.43 207.144 400.939 207.144 404.449 209.991 407.295 213.5 407.295 217.009 407.295 219.856 404.449 219.856 400.939 219.856 397.43 217.009 394.583 213.5 394.583Z"/></clipPath></defs><g clip-path="url(#clip0)"><g clip-path="url(#clip1)"><path d="M-42.7-42.7 469.7-42.7 469.7 469.7-42.7 469.7Z" fill="#FFFFFF"/><path d="M-42.7-42.7 469.7-42.7 469.7 469.7-42.7 469.7Z" fill="#F06F33"/><g><g clip-path="url(#clip2)"><path d="M213.5 26.0603C109.979 26.0603 26.0603 109.979 26.0603 213.5 26.0603 317.021 109.979 400.94 213.5 400.94 317.021 400.94 400.94 317.021 400.94 213.5 400.94 109.979 317.021 26.0603 213.5 26.0603Z" stroke="#FFFFFF" stroke-width="3.416" fill="none"/></g></g><g><g clip-path="url(#clip3)"><path d="M38.3054 38.3054 388.694 38.3054 388.694 388.694 38.3054 388.694Z" fill="#FFFFFF"/></g></g><g><g clip-path="url(#clip4)"><path d="M213.5 52.1207C124.373 52.1207 52.1207 124.373 52.1207 213.5 52.1207 302.627 124.373 374.879 213.5 374.879 302.627 374.879 374.879 302.627 374.879 213.5 374.879 124.373 302.627 52.1207 213.5 52.1207Z" stroke="#F06F33" stroke-width="3.416" fill="none"/></g></g><g><path d="M239.325 184.562C239.61 182.009 239.903 179.505 240.17 176.992 240.441 174.47 240.677 171.943 240.948 169.417 241.068 168.301 241.411 167.215 242.616 166.894 243.87 166.561 244.884 167.197 245.645 168.171 246.864 169.729 247.144 171.636 247.424 173.495 248.323 179.464 248.007 185.434 247.353 191.398 246.65 197.821 245.511 204.169 244.169 210.485 244.102 210.809 244.093 211.152 244.034 211.663 246.762 210.502 249.043 208.936 251.165 207.121 252.766 205.747 254.265 204.262 255.551 202.576 256.111 201.842 256.818 201.255 257.73 201.94 258.646 202.62 258.312 203.452 257.721 204.19 254.025 208.812 249.555 212.436 243.999 214.594 243.399 214.83 243.208 215.15 243.105 215.679 240.57 229.126 237.141 242.358 233.515 255.542 233.422 255.871 233.347 256.214 233.2 256.52 232.937 257.08 232.484 257.388 231.847 257.29 231.212 257.192 230.891 256.765 230.829 256.137 230.762 255.484 230.883 254.856 231.051 254.226 233.449 245.214 236.019 236.247 237.946 227.115 240.086 216.979 242.424 206.873 243.95 196.62 245.031 189.339 245.894 182.018 244.844 174.634 244.636 173.157 244.454 171.672 243.6 169.969 243.327 172.513 243.075 174.706 242.87 176.898 241.843 187.96 239.894 198.88 237.767 209.777 233.515 231.599 227.052 252.802 219.977 273.836 219.1 276.447 218.309 279.08 217.401 281.678 217.098 282.536 217.348 282.781 218.139 282.772 219.874 282.745 221.573 282.55 223.179 281.829 224.131 281.402 224.767 280.69 225.216 279.765 226.105 277.946 226.723 276.02 227.297 274.085 228.903 268.618 231.469 263.597 235.531 259.66 241.094 254.256 244.044 247.686 245.597 240.294 246.677 235.175 249.403 231.042 253.295 227.617 255.075 226.052 256.916 224.548 258.882 223.237 265.323 218.931 267.898 212.758 267.801 205.231 267.76 202.176 267.631 199.115 267.974 196.068 268.41 192.164 269.918 188.601 271.563 185.087 272.991 182.058 274.494 179.06 275.198 175.742 275.779 172.989 275.718 170.261 275.019 167.557 274.232 164.515 272.23 162.362 269.708 160.65 268.503 159.827 267.258 159.054 265.963 158.382 261.809 156.219 258.069 153.498 254.657 150.299 251.988 147.8 249.07 145.705 245.418 144.877 241.22 143.93 237.221 144.73 233.311 146.3 229.264 147.92 225.825 150.495 222.427 153.146 222.173 153.342 221.991 153.551 221.96 153.876 221.688 156.686 220.701 159.32 219.793 161.953 217.992 167.184 219.046 172.116 220.941 177.044 222.343 180.693 223.766 184.335 224.513 188.205 225.354 192.542 224.824 196.691 222.987 200.667 221.8 203.243 220.456 205.743 219.198 208.283 218.664 209.363 218.153 210.453 217.654 211.547 215.982 215.203 215.542 218.935 216.778 222.84 217.467 225.011 217.961 227.235 218.05 229.539 218.139 231.887 217.619 234.063 216.475 236.1 215.95 237.034 215.453 237.99 214.87 238.893 212.17 243.105 211.458 247.576 212.677 252.469 213.691 256.56 214.443 260.728 214.38 264.976 214.296 270.602 212.993 275.954 210.551 281.029 210.245 281.669 210 282.319 209.141 282.331 208.313 282.345 207.94 281.731 207.593 281.135 205.623 277.741 204.066 274.157 202.753 270.469 198.23 257.752 195.223 244.645 192.897 231.38 191.296 222.227 190.041 213.019 189.045 203.777 187.663 190.878 186.861 177.947 186.865 164.973 186.865 162.563 186.746 160.151 186.657 157.741 186.643 157.327 186.737 156.87 186.323 156.415 185.46 159.009 185.015 161.62 184.669 164.244 182.973 176.978 183.018 189.749 184.109 202.527 185.643 220.577 188.645 238.359 193.942 255.71 196.443 263.904 199.365 271.936 203.719 279.37 204.111 280.037 204.524 280.69 204.96 281.326 205.516 282.145 205.903 283.008 204.902 283.689 203.955 284.333 203.287 283.67 202.767 282.914 200.574 279.708 198.835 276.255 197.279 272.706 192.479 261.751 189.254 250.306 186.706 238.653 184.94 230.585 183.633 222.432 182.605 214.234 182.498 213.384 182.196 213.104 181.421 212.922 176.836 211.823 173.26 209.195 170.413 205.503 170.253 205.298 170.093 205.089 169.977 204.862 169.608 204.132 169.573 203.421 170.329 202.923 171.031 202.461 171.654 202.75 172.148 203.323 172.628 203.875 173.033 204.489 173.523 205.031 175.822 207.571 178.566 209.403 182.075 210.315 181.867 207.886 181.68 205.587 181.466 203.287 180.745 195.473 180.537 187.64 180.763 179.798 180.794 178.686 180.456 178.379 179.415 178.188 175.385 177.45 171.881 175.599 168.87 172.819 168.523 172.499 168.189 172.153 168.042 171.685 167.865 171.103 167.923 170.569 168.434 170.168 168.936 169.777 169.475 169.795 169.986 170.156 170.266 170.35 170.511 170.6 170.756 170.835 173.295 173.313 176.386 174.723 179.785 175.564 180.635 175.773 180.955 175.586 181.008 174.603 181.319 168.625 181.858 162.669 183.344 156.847 183.685 155.508 184.112 154.201 184.882 153.035 185.362 152.315 185.994 151.816 186.914 151.905 187.84 151.998 188.365 152.635 188.667 153.435 189.156 154.739 189.241 156.117 189.33 157.496 189.749 163.991 189.419 170.502 189.802 177 190.029 180.91 190.215 184.828 190.358 188.743 190.402 189.975 190.802 189.895 191.63 189.33 194.192 187.582 196.203 185.283 198.114 182.894 200.326 180.131 202.256 177.187 203.759 173.971 203.884 173.7 204.017 173.425 204.19 173.18 204.617 172.588 205.191 172.339 205.877 172.669 206.566 172.998 206.708 173.607 206.556 174.309 206.517 174.474 206.446 174.634 206.37 174.79 203.172 181.275 199.115 187.08 193.253 191.469 193.048 191.625 192.843 191.835 192.608 191.884 190.598 192.319 190.74 193.751 190.9 195.308 191.758 203.826 192.679 212.339 193.974 220.808 194.138 221.875 194.481 221.653 195.067 221.151 198.48 218.237 200.797 214.536 202.701 210.546 203.07 209.773 203.385 208.968 203.684 208.162 204.017 207.256 204.551 206.561 205.587 206.953 206.556 207.322 206.517 208.189 206.218 209.034 204.897 212.807 202.927 216.218 200.49 219.371 198.977 221.328 197.297 223.116 195.125 224.336 194.463 224.709 194.649 225.141 194.717 225.629 195.62 232.417 196.998 239.106 198.595 245.761 200.69 254.497 202.741 263.246 206.085 271.621 206.908 273.676 207.732 275.73 208.972 277.857 210.124 275.175 210.728 272.573 211.241 269.935 212.259 264.696 211.391 259.572 210.35 254.452 210.004 252.726 209.692 250.987 209.457 249.239 209.03 246.023 209.706 242.989 211.165 240.121 211.81 238.858 212.436 237.577 213.234 236.407 215.497 233.062 215.852 229.499 214.75 225.683 214.283 224.077 213.932 222.432 213.584 220.794 212.802 217.077 213.807 213.629 215.252 210.266 216.475 207.42 217.987 204.715 219.411 201.966 221.347 198.235 222.64 194.357 222.08 190.073 221.644 186.772 220.532 183.65 219.362 180.549 218.228 177.534 217.063 174.523 216.435 171.347 215.617 167.233 216.503 163.31 217.752 159.427 218.544 156.971 219.522 154.534 219.34 151.896 218.971 146.683 216.391 142.609 211.708 140.607 205.979 138.161 200.632 135.181 195.446 131.774 189.371 127.785 182.961 128.807 176.636 131.28 173.931 132.335 171.476 133.829 169.403 135.91 166.681 138.642 165.321 141.92 165.289 145.763 165.284 146.755 165.226 147.751 165.303 148.734 165.613 152.866 164.052 156.3 161.45 159.364 160.81 160.12 160.183 160.89 159.507 161.611 155.344 166.04 154.441 171.01 156.931 176.587 158.662 180.46 159.698 184.45 158.8 188.743 158.305 191.1 157.829 193.462 157.394 195.828 156.233 202.162 157.043 208.016 161.655 212.904 162.869 214.189 164.106 215.453 165.342 216.711 166.126 217.512 166.931 218.29 167.718 219.086 171.08 222.485 173.019 226.555 173.535 231.31 173.891 234.57 174.879 237.639 176.724 240.347 180.955 246.561 183.654 253.482 186.207 260.475 188.774 267.502 191.674 274.374 195.05 281.064 197.176 285.28 200.548 287.345 204.942 288.279 211.089 289.586 217.223 289.786 223.375 288.327 224.224 288.127 225.202 288.038 225.479 289.186 225.741 290.28 225.003 290.724 224.055 290.934 216.057 292.704 208.171 292.411 200.405 289.702 197.416 288.661 195.223 286.713 193.671 283.995 190.144 277.816 187.324 271.323 184.873 264.656 182.903 259.291 180.955 253.918 178.463 248.763 177.641 247.055 176.787 245.364 175.688 243.817 172.895 239.876 171.204 235.531 170.671 230.718 170.271 227.08 168.625 224.01 166.134 221.368 163.719 218.797 161.051 216.466 158.809 213.717 156.238 210.565 154.583 207.046 154.36 202.941 154.32 202.207 153.951 202.02 153.36 201.859 151.629 201.393 150.09 200.561 148.752 199.36 148.053 198.728 147.555 197.977 148.316 197.141 149.005 196.376 149.793 196.686 150.482 197.288 151.398 198.088 152.421 198.706 153.578 199.098 153.986 199.236 154.32 199.28 154.347 198.657 154.52 195.113 155.503 191.705 156.162 188.244 156.763 185.082 156.211 182.116 155.055 179.162 154.432 177.561 153.795 176.173 152.075 175.422 150.909 174.909 149.94 173.967 149.063 173.01 148.44 172.335 148.008 171.538 148.854 170.756 149.65 170.017 150.344 170.489 150.985 171.098 151.531 171.619 152.11 172.104 152.871 172.779 152.884 171.236 152.733 169.972 152.91 168.714 153.356 165.578 154.872 162.967 156.847 160.575 158.159 158.986 159.596 157.491 160.748 155.766 162.006 153.885 162.638 151.847 162.638 149.574 162.638 147 162.421 144.401 163.025 141.853 164.146 137.142 167.037 133.718 171.005 131.169 176.178 127.846 181.884 126.285 188.031 126.49 190.932 126.588 193.569 127.638 196.095 128.985 197.732 129.857 199.297 130.849 200.774 131.966 203.403 133.954 206.272 135.479 209.391 136.551 213.388 137.926 216.841 140.074 219.278 143.645 220.581 145.553 221.408 147.662 221.916 149.984 222.684 149.704 223.209 149.135 223.811 148.689 228.512 145.211 233.574 142.604 239.484 141.911 244.818 141.283 249.555 142.73 253.731 145.999 256.137 147.88 258.398 149.949 260.75 151.896 262.08 152.999 263.571 153.867 265.038 154.765 265.732 155.188 265.937 155.064 266.114 154.294 266.875 150.997 267.106 147.707 265.79 144.522 262.685 137 257.379 131.831 249.391 129.741 246.806 129.066 244.083 129.225 241.442 128.879 237.612 128.376 233.961 127.3 230.505 125.578 228.004 124.332 225.558 122.945 222.738 122.535 217.917 121.842 213.807 123.212 210.52 126.854 209.043 128.487 207.811 130.307 206.601 132.139 206.09 132.913 205.462 133.602 204.502 132.988 203.497 132.344 203.844 131.432 204.368 130.613 205.77 128.443 207.264 126.329 209.034 124.439 213.584 119.578 220.834 118.319 227.64 121.179 230.255 122.278 232.68 123.767 235.379 124.698 239.045 125.96 242.83 126.418 246.659 126.65 254.963 127.153 260.813 131.716 265.501 138.112 268.511 142.217 269.797 146.87 269.383 151.972 269.295 153.057 269.054 154.103 268.681 155.108 268.294 156.144 268.329 156.922 269.544 157.283 269.624 157.305 269.691 157.376 269.762 157.416 278.021 162.234 279.743 169.768 277.235 178.606 276.278 181.973 274.535 185.015 273.124 188.195 271.554 191.723 270.464 195.361 270.438 199.276 270.433 200.151 270.643 200.352 271.518 200.228 272.928 200.018 274.312 199.743 275.651 199.253 276.531 198.933 277.438 198.809 277.826 199.876 278.208 200.926 277.452 201.428 276.584 201.789 274.934 202.473 273.196 202.794 271.443 202.923 270.531 202.99 270.429 203.368 270.452 204.124 270.549 207.104 270.277 210.058 269.602 212.966 268.494 217.716 265.687 221.31 261.933 224.273 259.598 226.11 257.125 227.769 254.942 229.797 254.608 230.104 254.149 230.322 254.021 230.9 255.787 230.825 257.45 230.46 259.073 229.877 259.398 229.761 259.714 229.619 260.043 229.521 260.79 229.308 261.44 229.46 261.765 230.225 262.085 230.989 261.742 231.585 261.058 231.945 259.194 232.911 257.17 233.298 255.106 233.52 254.51 233.587 253.883 233.734 253.309 233.627 251.445 233.284 250.742 234.477 250.044 235.837 248.496 238.862 247.877 242.181 247.033 245.413 245.583 250.956 242.998 255.791 238.915 259.843 234.005 264.726 230.9 270.647 229.103 277.296 228.984 277.75 228.77 278.182 228.641 278.635 227.333 283.377 223.93 285.25 219.309 285.441 218.407 285.476 217.508 285.49 216.609 285.285 214.709 284.849 213.962 283.759 214.545 281.891 215.852 277.662 217.178 273.436 218.619 269.246 222.88 256.844 226.555 244.27 230.037 231.63 230.326 230.58 230.282 230.041 229.157 229.362 226.123 227.519 224.033 224.677 222.094 221.76 221.608 221.03 221.636 220.234 222.458 219.74 223.232 219.273 223.86 219.665 224.336 220.327 225.82 222.392 227.315 224.441 229.268 226.11 229.526 226.336 229.797 226.55 230.055 226.777 230.727 227.36 231.127 227.386 231.354 226.354 232.368 221.693 233.476 217.049 234.472 212.384 236.166 204.431 237.563 196.425 238.805 188.391 238.915 187.653 238.711 187.409 238.075 187.066 234.005 184.877 230.878 181.653 228.347 177.828 227.853 177.081 227.711 176.213 228.623 175.688 229.504 175.186 230.162 175.697 230.673 176.453 232.692 179.447 235.126 182.031 238.164 184.014 238.378 184.157 238.6 184.291 238.826 184.415 238.933 184.469 239.057 184.487 239.325 184.562ZM141.484 208.719C142.73 210.03 143.988 211.334 145.287 212.588 147.84 215.043 149.566 217.939 150.29 221.431 150.526 222.56 150.878 223.673 151.233 224.78 153.493 231.884 158.634 235.686 166.049 235.753 166.388 235.758 166.74 235.686 167.064 235.588 167.669 235.406 167.989 234.952 167.972 234.33 167.953 233.698 167.601 233.284 166.957 233.177 166.406 233.088 165.849 233.026 165.293 232.969 158.693 232.279 155.41 229.539 153.569 223.165 153.405 222.587 153.226 222.009 153.106 221.422 152.217 217.018 150.094 213.322 146.808 210.262 145.607 209.15 144.477 207.963 143.365 206.761 140.252 203.39 139.104 199.391 139.606 194.863 139.887 192.311 140.737 189.926 141.622 187.551 143.255 183.183 144.246 178.731 143.565 174.034 143.223 171.689 142.693 169.386 142.111 167.095 141.003 162.736 141.115 158.501 143.81 154.725 147.542 149.494 152.479 146.212 159.084 145.905 159.974 145.865 160.641 145.584 160.65 144.602 160.659 143.619 159.992 143.276 159.11 143.245 158.724 143.227 158.337 143.218 157.95 143.227 155.076 143.29 152.465 144.295 150.01 145.661 144.482 148.725 140.336 152.968 139.015 159.4 138.362 162.598 138.988 165.739 139.745 168.847 140.581 172.281 141.337 175.714 140.964 179.3 140.665 182.16 139.709 184.824 138.749 187.493 137.663 190.5 136.76 193.538 136.796 197.154 136.782 201.379 138.313 205.373 141.484 208.719ZM289.341 177.663C288.207 173.482 285.005 170.961 280.81 170.916 279.992 170.907 279.321 171.098 279.209 172.018 279.093 172.984 279.667 173.433 280.553 173.572 280.891 173.624 281.228 173.714 281.571 173.749 284.426 174.055 286.05 175.746 286.722 178.428 287.331 180.861 287.068 183.316 286.543 185.719 285.735 189.432 285.64 193.124 286.361 196.861 286.739 198.849 286.921 200.872 286.619 202.9 286.134 206.148 284.582 208.826 282.158 210.978 278.138 214.545 275.544 218.922 274.241 224.14 273.595 226.714 272.666 229.224 271.607 231.674 268.921 237.911 264.015 242.114 258.589 245.81 256.28 247.384 253.848 248.763 251.183 249.679 250.395 249.951 249.902 250.48 250.151 251.342 250.4 252.21 251.12 252.406 251.907 252.21 252.611 252.037 253.313 251.797 253.972 251.498 255.893 250.631 257.739 249.608 259.504 248.456 266.653 243.791 272.595 238.101 275.312 229.703 275.962 227.698 276.687 225.714 277.216 223.681 278.297 219.545 280.508 216.137 283.657 213.313 288.501 208.976 290.231 203.612 289.133 197.248 288.589 194.103 288.199 190.941 288.914 187.76 289.337 185.869 289.667 183.962 289.674 182.502 289.809 180.546 289.728 179.091 289.341 177.663ZM267.013 165.667C264.607 163.096 261.524 161.42 258.477 159.729 257.85 159.383 257.187 159.507 256.774 160.139 256.324 160.823 256.507 161.469 257.108 161.971 257.437 162.246 257.819 162.456 258.193 162.664 259.923 163.625 261.546 164.751 263.179 165.867 266.145 167.895 267.222 170.746 266.942 174.23 266.795 176.048 266.226 177.756 265.741 179.496 265.527 180.269 265.678 181.008 266.56 181.265 267.404 181.515 267.995 181.062 268.276 180.292 269.126 177.984 269.673 175.604 269.713 173.135 269.726 170.31 268.939 167.731 267.013 165.667ZM235.553 134.363C235.428 135.105 235.793 135.608 236.478 135.857 236.798 135.973 237.141 136.031 237.479 136.093 240.103 136.582 242.776 136.645 245.418 136.951 249.888 137.471 253.669 139.46 256.974 142.453 257.601 143.022 258.41 143.467 259.131 142.662 259.865 141.844 259.438 141.066 258.727 140.434 256.169 138.157 253.376 136.306 250.08 135.221 245.805 133.82 241.299 134.229 237.136 133.304 236.273 133.366 235.681 133.588 235.553 134.363ZM229.7 131.64C228.863 131.636 228.436 132.139 228.468 132.953 228.499 133.726 228.988 134.122 229.74 134.087 230.491 134.055 230.895 133.607 230.94 132.82 230.851 132.104 230.46 131.64 229.7 131.64Z" fill="#ED4B00"/><path d="M239.325 184.562C239.61 182.009 239.903 179.505 240.17 176.992 240.441 174.47 240.677 171.943 240.948 169.417 241.068 168.301 241.411 167.215 242.616 166.894 243.87 166.561 244.884 167.197 245.645 168.171 246.864 169.729 247.144 171.636 247.424 173.495 248.323 179.464 248.007 185.434 247.353 191.398 246.65 197.821 245.511 204.169 244.169 210.485 244.102 210.809 244.093 211.152 244.034 211.663 246.762 210.502 249.043 208.936 251.165 207.121 252.766 205.747 254.265 204.262 255.551 202.576 256.111 201.842 256.818 201.255 257.73 201.94 258.646 202.62 258.312 203.452 257.721 204.19 254.025 208.812 249.555 212.436 243.999 214.594 243.399 214.83 243.208 215.15 243.105 215.679 240.57 229.126 237.141 242.358 233.515 255.542 233.422 255.871 233.347 256.214 233.2 256.52 232.937 257.08 232.484 257.388 231.847 257.29 231.212 257.192 230.891 256.765 230.829 256.137 230.762 255.484 230.883 254.856 231.051 254.226 233.449 245.214 236.019 236.247 237.946 227.115 240.086 216.979 242.424 206.873 243.95 196.62 245.031 189.339 245.894 182.018 244.844 174.634 244.636 173.157 244.454 171.672 243.6 169.969 243.327 172.513 243.075 174.706 242.87 176.898 241.843 187.96 239.894 198.88 237.767 209.777 233.515 231.599 227.052 252.802 219.977 273.836 219.1 276.447 218.309 279.08 217.401 281.678 217.098 282.536 217.348 282.781 218.139 282.772 219.874 282.745 221.573 282.55 223.179 281.829 224.131 281.402 224.767 280.69 225.216 279.765 226.105 277.946 226.723 276.02 227.297 274.085 228.903 268.618 231.469 263.597 235.531 259.66 241.094 254.256 244.044 247.686 245.597 240.294 246.677 235.175 249.403 231.042 253.295 227.617 255.075 226.052 256.916 224.548 258.882 223.237 265.323 218.931 267.898 212.758 267.801 205.231 267.76 202.176 267.631 199.115 267.974 196.068 268.41 192.164 269.918 188.601 271.563 185.087 272.991 182.058 274.494 179.06 275.198 175.742 275.779 172.989 275.718 170.261 275.019 167.557 274.232 164.515 272.23 162.362 269.708 160.65 268.503 159.827 267.258 159.054 265.963 158.382 261.809 156.219 258.069 153.498 254.657 150.299 251.988 147.8 249.07 145.705 245.418 144.877 241.22 143.93 237.221 144.73 233.311 146.3 229.264 147.92 225.825 150.495 222.427 153.146 222.173 153.342 221.991 153.551 221.96 153.876 221.688 156.686 220.701 159.32 219.793 161.953 217.992 167.184 219.046 172.116 220.941 177.044 222.343 180.693 223.766 184.335 224.513 188.205 225.354 192.542 224.824 196.691 222.987 200.667 221.8 203.243 220.456 205.743 219.198 208.283 218.664 209.363 218.153 210.453 217.654 211.547 215.982 215.203 215.542 218.935 216.778 222.84 217.467 225.011 217.961 227.235 218.05 229.539 218.139 231.887 217.619 234.063 216.475 236.1 215.95 237.034 215.453 237.99 214.87 238.893 212.17 243.105 211.458 247.576 212.677 252.469 213.691 256.56 214.443 260.728 214.38 264.976 214.296 270.602 212.993 275.954 210.551 281.029 210.245 281.669 210 282.319 209.141 282.331 208.313 282.345 207.94 281.731 207.593 281.135 205.623 277.741 204.066 274.157 202.753 270.469 198.23 257.752 195.223 244.645 192.897 231.38 191.296 222.227 190.041 213.019 189.045 203.777 187.663 190.878 186.861 177.947 186.865 164.973 186.865 162.563 186.746 160.151 186.657 157.741 186.643 157.327 186.737 156.87 186.323 156.415 185.46 159.009 185.015 161.62 184.669 164.244 182.973 176.978 183.018 189.749 184.109 202.527 185.643 220.577 188.645 238.359 193.942 255.71 196.443 263.904 199.365 271.936 203.719 279.37 204.111 280.037 204.524 280.69 204.96 281.326 205.516 282.145 205.903 283.008 204.902 283.689 203.955 284.333 203.287 283.67 202.767 282.914 200.574 279.708 198.835 276.255 197.279 272.706 192.479 261.751 189.254 250.306 186.706 238.653 184.94 230.585 183.633 222.432 182.605 214.234 182.498 213.384 182.196 213.104 181.421 212.922 176.836 211.823 173.26 209.195 170.413 205.503 170.253 205.298 170.093 205.089 169.977 204.862 169.608 204.132 169.573 203.421 170.329 202.923 171.031 202.461 171.654 202.75 172.148 203.323 172.628 203.875 173.033 204.489 173.523 205.031 175.822 207.571 178.566 209.403 182.075 210.315 181.867 207.886 181.68 205.587 181.466 203.287 180.745 195.473 180.537 187.64 180.763 179.798 180.794 178.686 180.456 178.379 179.415 178.188 175.385 177.45 171.881 175.599 168.87 172.819 168.523 172.499 168.189 172.153 168.042 171.685 167.865 171.103 167.923 170.569 168.434 170.168 168.936 169.777 169.475 169.795 169.986 170.156 170.266 170.35 170.511 170.6 170.756 170.835 173.295 173.313 176.386 174.723 179.785 175.564 180.635 175.773 180.955 175.586 181.008 174.603 181.319 168.625 181.858 162.669 183.344 156.847 183.685 155.508 184.112 154.201 184.882 153.035 185.362 152.315 185.994 151.816 186.914 151.905 187.84 151.998 188.365 152.635 188.667 153.435 189.156 154.739 189.241 156.117 189.33 157.496 189.749 163.991 189.419 170.502 189.802 177 190.029 180.91 190.215 184.828 190.358 188.743 190.402 189.975 190.802 189.895 191.63 189.33 194.192 187.582 196.203 185.283 198.114 182.894 200.326 180.131 202.256 177.187 203.759 173.971 203.884 173.7 204.017 173.425 204.19 173.18 204.617 172.588 205.191 172.339 205.877 172.669 206.566 172.998 206.708 173.607 206.556 174.309 206.517 174.474 206.446 174.634 206.37 174.79 203.172 181.275 199.115 187.08 193.253 191.469 193.048 191.625 192.843 191.835 192.608 191.884 190.598 192.319 190.74 193.751 190.9 195.308 191.758 203.826 192.679 212.339 193.974 220.808 194.138 221.875 194.481 221.653 195.067 221.151 198.48 218.237 200.797 214.536 202.701 210.546 203.07 209.773 203.385 208.968 203.684 208.162 204.017 207.256 204.551 206.561 205.587 206.953 206.556 207.322 206.517 208.189 206.218 209.034 204.897 212.807 202.927 216.218 200.49 219.371 198.977 221.328 197.297 223.116 195.125 224.336 194.463 224.709 194.649 225.141 194.717 225.629 195.62 232.417 196.998 239.106 198.595 245.761 200.69 254.497 202.741 263.246 206.085 271.621 206.908 273.676 207.732 275.73 208.972 277.857 210.124 275.175 210.728 272.573 211.241 269.935 212.259 264.696 211.391 259.572 210.35 254.452 210.004 252.726 209.692 250.987 209.457 249.239 209.03 246.023 209.706 242.989 211.165 240.121 211.81 238.858 212.436 237.577 213.234 236.407 215.497 233.062 215.852 229.499 214.75 225.683 214.283 224.077 213.932 222.432 213.584 220.794 212.802 217.077 213.807 213.629 215.252 210.266 216.475 207.42 217.987 204.715 219.411 201.966 221.347 198.235 222.64 194.357 222.08 190.073 221.644 186.772 220.532 183.65 219.362 180.549 218.228 177.534 217.063 174.523 216.435 171.347 215.617 167.233 216.503 163.31 217.752 159.427 218.544 156.971 219.522 154.534 219.34 151.896 218.971 146.683 216.391 142.609 211.708 140.607 205.979 138.161 200.632 135.181 195.446 131.774 189.371 127.785 182.961 128.807 176.636 131.28 173.931 132.335 171.476 133.829 169.403 135.91 166.681 138.642 165.321 141.92 165.289 145.763 165.284 146.755 165.226 147.751 165.303 148.734 165.613 152.866 164.052 156.3 161.45 159.364 160.81 160.12 160.183 160.89 159.507 161.611 155.344 166.04 154.441 171.01 156.931 176.587 158.662 180.46 159.698 184.45 158.8 188.743 158.305 191.1 157.829 193.462 157.394 195.828 156.233 202.162 157.043 208.016 161.655 212.904 162.869 214.189 164.106 215.453 165.342 216.711 166.126 217.512 166.931 218.29 167.718 219.086 171.08 222.485 173.019 226.555 173.535 231.31 173.891 234.57 174.879 237.639 176.724 240.347 180.955 246.561 183.654 253.482 186.207 260.475 188.774 267.502 191.674 274.374 195.05 281.064 197.176 285.28 200.548 287.345 204.942 288.279 211.089 289.586 217.223 289.786 223.375 288.327 224.224 288.127 225.202 288.038 225.479 289.186 225.741 290.28 225.003 290.724 224.055 290.934 216.057 292.704 208.171 292.411 200.405 289.702 197.416 288.661 195.223 286.713 193.671 283.995 190.144 277.816 187.324 271.323 184.873 264.656 182.903 259.291 180.955 253.918 178.463 248.763 177.641 247.055 176.787 245.364 175.688 243.817 172.895 239.876 171.204 235.531 170.671 230.718 170.271 227.08 168.625 224.01 166.134 221.368 163.719 218.797 161.051 216.466 158.809 213.717 156.238 210.565 154.583 207.046 154.36 202.941 154.32 202.207 153.951 202.02 153.36 201.859 151.629 201.393 150.09 200.561 148.752 199.36 148.053 198.728 147.555 197.977 148.316 197.141 149.005 196.376 149.793 196.686 150.482 197.288 151.398 198.088 152.421 198.706 153.578 199.098 153.986 199.236 154.32 199.28 154.347 198.657 154.52 195.113 155.503 191.705 156.162 188.244 156.763 185.082 156.211 182.116 155.055 179.162 154.432 177.561 153.795 176.173 152.075 175.422 150.909 174.909 149.94 173.967 149.063 173.01 148.44 172.335 148.008 171.538 148.854 170.756 149.65 170.017 150.344 170.489 150.985 171.098 151.531 171.619 152.11 172.104 152.871 172.779 152.884 171.236 152.733 169.972 152.91 168.714 153.356 165.578 154.872 162.967 156.847 160.575 158.159 158.986 159.596 157.491 160.748 155.766 162.006 153.885 162.638 151.847 162.638 149.574 162.638 147 162.421 144.401 163.025 141.853 164.146 137.142 167.037 133.718 171.005 131.169 176.178 127.846 181.884 126.285 188.031 126.49 190.932 126.588 193.569 127.638 196.095 128.985 197.732 129.857 199.297 130.849 200.774 131.966 203.403 133.954 206.272 135.479 209.391 136.551 213.388 137.926 216.841 140.074 219.278 143.645 220.581 145.553 221.408 147.662 221.916 149.984 222.684 149.704 223.209 149.135 223.811 148.689 228.512 145.211 233.574 142.604 239.484 141.911 244.818 141.283 249.555 142.73 253.731 145.999 256.137 147.88 258.398 149.949 260.75 151.896 262.08 152.999 263.571 153.867 265.038 154.765 265.732 155.188 265.937 155.064 266.114 154.294 266.875 150.997 267.106 147.707 265.79 144.522 262.685 137 257.379 131.831 249.391 129.741 246.806 129.066 244.083 129.225 241.442 128.879 237.612 128.376 233.961 127.3 230.505 125.578 228.004 124.332 225.558 122.945 222.738 122.535 217.917 121.842 213.807 123.212 210.52 126.854 209.043 128.487 207.811 130.307 206.601 132.139 206.09 132.913 205.462 133.602 204.502 132.988 203.497 132.344 203.844 131.432 204.368 130.613 205.77 128.443 207.264 126.329 209.034 124.439 213.584 119.578 220.834 118.319 227.64 121.179 230.255 122.278 232.68 123.767 235.379 124.698 239.045 125.96 242.83 126.418 246.659 126.65 254.963 127.153 260.813 131.716 265.501 138.112 268.511 142.217 269.797 146.87 269.383 151.972 269.295 153.057 269.054 154.103 268.681 155.108 268.294 156.144 268.329 156.922 269.544 157.283 269.624 157.305 269.691 157.376 269.762 157.416 278.021 162.234 279.743 169.768 277.235 178.606 276.278 181.973 274.535 185.015 273.124 188.195 271.554 191.723 270.464 195.361 270.438 199.276 270.433 200.151 270.643 200.352 271.518 200.228 272.928 200.018 274.312 199.743 275.651 199.253 276.531 198.933 277.438 198.809 277.826 199.876 278.208 200.926 277.452 201.428 276.584 201.789 274.934 202.473 273.196 202.794 271.443 202.923 270.531 202.99 270.429 203.368 270.452 204.124 270.549 207.104 270.277 210.058 269.602 212.966 268.494 217.716 265.687 221.31 261.933 224.273 259.598 226.11 257.125 227.769 254.942 229.797 254.608 230.104 254.149 230.322 254.021 230.9 255.787 230.825 257.45 230.46 259.073 229.877 259.398 229.761 259.714 229.619 260.043 229.521 260.79 229.308 261.44 229.46 261.765 230.225 262.085 230.989 261.742 231.585 261.058 231.945 259.194 232.911 257.17 233.298 255.106 233.52 254.51 233.587 253.883 233.734 253.309 233.627 251.445 233.284 250.742 234.477 250.044 235.837 248.496 238.862 247.877 242.181 247.033 245.413 245.583 250.956 242.998 255.791 238.915 259.843 234.005 264.726 230.9 270.647 229.103 277.296 228.984 277.75 228.77 278.182 228.641 278.635 227.333 283.377 223.93 285.25 219.309 285.441 218.407 285.476 217.508 285.49 216.609 285.285 214.709 284.849 213.962 283.759 214.545 281.891 215.852 277.662 217.178 273.436 218.619 269.246 222.88 256.844 226.555 244.27 230.037 231.63 230.326 230.58 230.282 230.041 229.157 229.362 226.123 227.519 224.033 224.677 222.094 221.76 221.608 221.03 221.636 220.234 222.458 219.74 223.232 219.273 223.86 219.665 224.336 220.327 225.82 222.392 227.315 224.441 229.268 226.11 229.526 226.336 229.797 226.55 230.055 226.777 230.727 227.36 231.127 227.386 231.354 226.354 232.368 221.693 233.476 217.049 234.472 212.384 236.166 204.431 237.563 196.425 238.805 188.391 238.915 187.653 238.711 187.409 238.075 187.066 234.005 184.877 230.878 181.653 228.347 177.828 227.853 177.081 227.711 176.213 228.623 175.688 229.504 175.186 230.162 175.697 230.673 176.453 232.692 179.447 235.126 182.031 238.164 184.014 238.378 184.157 238.6 184.291 238.826 184.415 238.933 184.469 239.057 184.487 239.325 184.562ZM141.484 208.719C142.73 210.03 143.988 211.334 145.287 212.588 147.84 215.043 149.566 217.939 150.29 221.431 150.526 222.56 150.878 223.673 151.233 224.78 153.493 231.884 158.634 235.686 166.049 235.753 166.388 235.758 166.74 235.686 167.064 235.588 167.669 235.406 167.989 234.952 167.972 234.33 167.953 233.698 167.601 233.284 166.957 233.177 166.406 233.088 165.849 233.026 165.293 232.969 158.693 232.279 155.41 229.539 153.569 223.165 153.405 222.587 153.226 222.009 153.106 221.422 152.217 217.018 150.094 213.322 146.808 210.262 145.607 209.15 144.477 207.963 143.365 206.761 140.252 203.39 139.104 199.391 139.606 194.863 139.887 192.311 140.737 189.926 141.622 187.551 143.255 183.183 144.246 178.731 143.565 174.034 143.223 171.689 142.693 169.386 142.111 167.095 141.003 162.736 141.115 158.501 143.81 154.725 147.542 149.494 152.479 146.212 159.084 145.905 159.974 145.865 160.641 145.584 160.65 144.602 160.659 143.619 159.992 143.276 159.11 143.245 158.724 143.227 158.337 143.218 157.95 143.227 155.076 143.29 152.465 144.295 150.01 145.661 144.482 148.725 140.336 152.968 139.015 159.4 138.362 162.598 138.988 165.739 139.745 168.847 140.581 172.281 141.337 175.714 140.964 179.3 140.665 182.16 139.709 184.824 138.749 187.493 137.663 190.5 136.76 193.538 136.796 197.154 136.782 201.379 138.313 205.373 141.484 208.719ZM289.341 177.663C288.207 173.482 285.005 170.961 280.81 170.916 279.992 170.907 279.321 171.098 279.209 172.018 279.093 172.984 279.667 173.433 280.553 173.572 280.891 173.624 281.228 173.714 281.571 173.749 284.426 174.055 286.05 175.746 286.722 178.428 287.331 180.861 287.068 183.316 286.543 185.719 285.735 189.432 285.64 193.124 286.361 196.861 286.739 198.849 286.921 200.872 286.619 202.9 286.134 206.148 284.582 208.826 282.158 210.978 278.138 214.545 275.544 218.922 274.241 224.14 273.595 226.714 272.666 229.224 271.607 231.674 268.921 237.911 264.015 242.114 258.589 245.81 256.28 247.384 253.848 248.763 251.183 249.679 250.395 249.951 249.902 250.48 250.151 251.342 250.4 252.21 251.12 252.406 251.907 252.21 252.611 252.037 253.313 251.797 253.972 251.498 255.893 250.631 257.739 249.608 259.504 248.456 266.653 243.791 272.595 238.101 275.312 229.703 275.962 227.698 276.687 225.714 277.216 223.681 278.297 219.545 280.508 216.137 283.657 213.313 288.501 208.976 290.231 203.612 289.133 197.248 288.589 194.103 288.199 190.941 288.914 187.76 289.337 185.869 289.667 183.962 289.674 182.502 289.809 180.546 289.728 179.091 289.341 177.663ZM267.013 165.667C264.607 163.096 261.524 161.42 258.477 159.729 257.85 159.383 257.187 159.507 256.774 160.139 256.324 160.823 256.507 161.469 257.108 161.971 257.437 162.246 257.819 162.456 258.193 162.664 259.923 163.625 261.546 164.751 263.179 165.867 266.145 167.895 267.222 170.746 266.942 174.23 266.795 176.048 266.226 177.756 265.741 179.496 265.527 180.269 265.678 181.008 266.56 181.265 267.404 181.515 267.995 181.062 268.276 180.292 269.126 177.984 269.673 175.604 269.713 173.135 269.726 170.31 268.939 167.731 267.013 165.667ZM235.553 134.363C235.428 135.105 235.793 135.608 236.478 135.857 236.798 135.973 237.141 136.031 237.479 136.093 240.103 136.582 242.776 136.645 245.418 136.951 249.888 137.471 253.669 139.46 256.974 142.453 257.601 143.022 258.41 143.467 259.131 142.662 259.865 141.844 259.438 141.066 258.727 140.434 256.169 138.157 253.376 136.306 250.08 135.221 245.805 133.82 241.299 134.229 237.136 133.304 236.273 133.366 235.681 133.588 235.553 134.363ZM229.7 131.64C228.863 131.636 228.436 132.139 228.468 132.953 228.499 133.726 228.988 134.122 229.74 134.087 230.491 134.055 230.895 133.607 230.94 132.82 230.851 132.104 230.46 131.64 229.7 131.64Z" fill="#ED4B00"/></g><g><g clip-path="url(#clip5)"><path d="M207.144 19.7043 219.856 19.7043 219.856 32.4165 207.144 32.4165Z" fill="#FFFFFF"/></g></g><g><g clip-path="url(#clip6)"><path d="M45.7646 207.144 58.4768 207.144 58.4768 219.856 45.7646 219.856Z" fill="#F06F33"/></g></g><g><g clip-path="url(#clip7)"><path d="M368.524 207.144 381.236 207.144 381.236 219.856 368.524 219.856Z" fill="#F06F33"/></g></g><g><g clip-path="url(#clip8)"><path d="M207.144 394.583 219.856 394.583 219.856 407.295 207.144 407.295Z" fill="#FFFFFF"/></g></g><path d="M99.4464 216.493C97.8942 216.591 96.5731 216.658 95.688 216.658 94.238 216.76 93.5752 216.689 92.6189 216.462 91.9606 216.364 91.6315 217.058 91.6315 217.814 91.6315 218.606 91.9606 219.425 92.6189 219.66 92.5211 219.66 92.481 219.66 92.4499 219.691L92.5211 219.723 92.5211 224.504C92.5211 226.123 93.2817 226.817 95.6213 226.719 97.8942 226.688 99.3397 226.648 100.692 226.648L105.54 226.648C106.367 226.648 107.422 225.994 107.19 224.931 107.03 224.313 106.563 224.077 106.336 223.948L106.336 223.846C106.336 223.321 106.367 222.565 106.403 221.573 106.465 220.585 106.563 219.66 106.665 218.837 106.892 216.987 105.611 216.195 104.197 216.231ZM93.8332 201.691C92.6501 201.851 91.3957 202.02 90.5106 202.02 89.0517 202.118 88.4023 202.055 87.4415 201.82 86.7832 201.722 86.423 202.385 86.423 203.141 86.423 203.897 86.721 204.724 87.3793 204.889 87.5083 204.982 87.6061 205.022 87.8374 205.12 88.1043 205.151 88.5001 205.218 89.3186 205.089 90.1503 204.982 91.3957 204.853 92.5878 204.76L95.6213 204.426C93.7709 208.251 90.5729 210.925 85.7291 213.131 85.0708 213.398 85.1331 213.887 85.6624 214.247 86.1561 214.612 87.0501 214.879 88.1043 214.514 90.1147 213.856 92.3876 212.704 94.3981 210.987 96.3775 209.305 98.2233 207.059 99.5088 204.164 99.9047 203.27 99.5443 202.514 98.9795 201.989 98.3611 201.491 97.4983 201.192 96.8044 201.295ZM107.092 200.797C107.092 200.499 107.061 200.201 107.03 199.943 106.995 199.413 106.732 198.955 106.305 198.528 105.54 197.901 104.357 197.274 103.036 197.274 102.342 197.274 101.951 197.603 101.786 198.163 101.555 198.559 101.884 199.017 102.182 199.284 103.236 200.041 103.899 200.797 103.899 202.776L103.899 213.856C103.899 214.514 104.09 215.737 104.886 215.737 105.976 215.737 107.092 214.683 107.092 212.406ZM95.7503 223.948 95.7503 219.562C96.711 219.531 98.2856 219.362 99.7757 219.264 101.226 219.167 102.609 219.064 103.303 219.064L103.303 223.717C103.303 223.877 103.303 224.175 103.205 223.948Z" stroke="#ED4B00" stroke-width="1.23646" fill="none"/><path d="M137.854 345.59C138.232 346.177 138.904 346.057 139.433 345.719 139.985 345.363 140.421 344.767 140.18 344.176L138.134 341 138.957 337.126 146.91 340.31C147.493 340.431 148.071 339.955 148.311 339.376 148.565 338.785 148.578 338.131 148.133 337.775L139.696 334.453 140.701 326.002C140.696 325.441 140.176 325.063 139.536 325.014 138.922 324.947 138.295 325.134 138.188 325.628 137.805 327.865 137.472 330.329 137.094 332.562 136.791 334.746 136.382 336.721 136.115 337.962 135.492 337.157 134.718 336.009 133.878 334.697L131.24 330.876C130.915 330.374 130.142 330.552 129.608 330.934 129.092 331.406 128.66 332.073 129.016 332.629Z" stroke="#ED4B00" stroke-width="1.64654" fill="none"/><path d="M160.188 318.017C160.668 317.777 160.717 316.981 160.49 316.358 160.259 315.744 159.681 315.233 159.031 315.482L152.622 318.226C152.004 318.524 151.959 319.329 152.217 319.934 152.462 320.579 153.044 321.109 153.689 320.868L155.7 320.01 160.326 330.663 158.484 331.45C157.866 331.841 157.688 332.633 157.919 333.251 158.151 333.865 158.729 334.377 159.565 334.146L165.988 331.33C166.486 331.116 166.49 330.298 166.219 329.666 165.899 328.99 165.303 328.528 164.671 328.799L162.834 329.591 158.119 318.902Z" stroke="#ED4B00" stroke-width="1.64654" fill="none"/><path d="M189.952 308.698C189.579 308.102 189.049 307.907 188.516 307.996 188.018 308.076 187.582 308.356 187.399 308.641L183.872 317.616 177.756 311.082C176.702 310.024 175.675 310.793 175.63 311.999 175.506 313.653 175.448 316.513 175.421 319.342 175.363 322.171 175.319 324.907 175.323 326.348 175.248 327.099 175.924 327.415 176.555 327.366 177.231 327.34 177.894 327.015 177.988 326.441L178.237 315.384 183.192 320.677C184.086 321.557 185.327 321.348 185.869 320.161L188.76 312.63 193.809 322.567C194.036 323.061 194.805 323.052 195.392 322.798 195.997 322.487 196.411 321.873 196.019 321.037Z" stroke="#ED4B00" stroke-width="1.64654" fill="none"/><path d="M206.05 313.685C206.054 316.261 206.868 318.471 208.189 320.063 209.51 321.705 211.427 322.657 213.611 322.652 216.609 322.643 218.193 321.625 219.594 320.45 220.283 319.908 220.457 318.983 220.216 318.324 219.914 317.697 219.167 317.31 218.153 317.728 217.525 318.182 216.987 318.689 216.213 319.085 215.43 319.445 214.443 319.654 213.158 319.539 212.17 319.454 211.214 318.827 210.458 317.804 209.679 316.79 209.137 315.42 209.043 313.863 208.919 312.604 209.154 311.048 209.897 309.758 210.649 308.437 211.845 307.418 213.7 307.169 215.226 307.022 216.276 307.618 217.592 308.69 218.161 309.171 218.976 308.841 219.478 308.299 219.99 307.756 220.132 306.884 219.443 306.23 217.139 304.291 215.457 304.149 213.696 304.153 212.401 304.153 210.484 304.789 208.905 306.319 207.264 307.881 206.01 310.243 206.05 313.685Z" stroke="#ED4B00" stroke-width="1.64654" fill="none"/><path d="M238.066 307.262C238.025 306.706 237.429 306.314 236.745 306.212 236.068 306.079 235.339 306.243 235.21 306.888L232.079 322.896C231.95 323.572 232.559 324.026 233.302 324.142 233.978 324.275 234.721 324.053 234.965 323.403L236.033 317.661 244.106 318.786 242.892 325.013C242.78 325.57 243.399 325.997 244.079 326.13 244.751 326.263 245.542 326.112 245.671 325.436L248.687 310.037C248.754 309.535 248.073 309.13 247.388 309.054 246.703 308.948 246.005 309.09 245.894 309.646L244.631 316.109 236.567 314.926Z" stroke="#ED4B00" stroke-width="1.64654" fill="none"/><path d="M269.469 328.202C269.095 329.114 268.606 330.075 268.099 330.973 267.587 331.765 267.076 332.521 266.755 332.846 266.293 333.335 266.471 333.994 266.924 334.465 267.427 334.901 268.143 335.132 268.761 334.572 269.833 333.62 271.359 331.08 272.515 328.189 273.672 325.298 274.477 322.095 274.063 319.698 273.707 317.576 272.013 315.877 269.976 315.165 267.916 314.423 265.488 314.587 263.753 316.108 262.223 317.323 260.595 319.956 259.305 322.763 258.046 325.516 257.263 328.362 257.495 329.941 257.566 330.555 258.242 330.867 258.834 330.853 259.505 330.871 260.061 330.609 260.066 329.964 260.124 328.732 260.564 326.641 261.436 324.902ZM262.699 322.469C262.984 322.002 263.277 321.286 263.753 320.543 264.202 319.756 264.696 318.955 265.505 318.315 266.337 317.559 267.654 317.256 268.828 317.55 269.998 317.861 271.043 318.782 271.368 320.432 271.492 321.161 271.354 322.109 271.07 323.132 270.803 324.088 270.46 325.075 270.398 325.636Z" stroke="#ED4B00" stroke-width="1.64654" fill="none"/><path d="M288.132 332.722C288.425 332.272 288.715 331.823 289.017 331.409 289.555 330.582 290.085 329.817 290.365 329.39 291.432 330.048 292.162 330.418 292.887 330.782 293.652 331.2 294.403 331.587 295.733 332.344 296.383 332.766 297.032 332.437 297.375 331.912 297.686 331.365 297.659 330.635 297.099 330.235 296.12 329.599 295.186 329.061 294.314 328.532 293.412 328.051 292.558 327.607 291.748 327.153 289.729 325.979 288.848 326.735 287.852 328.265 287.385 328.99 286.095 330.907 284.84 332.904 283.551 334.892 282.278 336.96 281.847 337.89 281.531 338.433 281.144 339.082 281.109 339.807 281.073 340.568 281.393 341.342 282.576 342.218 283.955 343.223 284.854 343.877 285.681 344.415L288.292 346.11C289.128 346.688 289.893 346.399 290.249 345.847 290.592 345.318 290.56 344.482 289.889 344.042 288.501 343.143 287.22 342.311 285.659 341.15 284.814 340.532 284.342 340.052 284.187 339.731 284.053 339.393 284.209 338.926 284.609 338.255 284.836 337.903 285.512 336.809 285.859 336.218 286.842 336.854 288.194 337.69 289.448 338.397 290.689 339.171 291.935 339.838 292.753 340.336 293.518 340.755 294.23 340.43 294.586 339.878 294.906 339.336 294.848 338.588 294.101 338.099 293.251 337.583 292.024 336.898 290.81 336.182 289.537 335.457 288.279 334.643 287.3 334.007Z" stroke="#ED4B00" stroke-width="1.64654" fill="none"/><path d="M339.202 201.891C339.202 201.593 339.162 201.295 339.131 201.028 339.1 200.507 338.833 200.005 338.406 199.613 337.716 198.986 336.693 198.323 335.372 198.323 334.678 198.323 334.287 198.652 334.06 199.217 333.922 199.644 334.158 200.174 334.518 200.338 335.573 201.094 336.235 201.859 336.235 203.799L336.235 209.932C335.702 210.164 334.976 210.359 333.891 210.391 333.593 210.422 333.326 210.422 333.166 210.422L332.806 210.422 332.806 203.105C332.806 202.874 332.806 202.647 332.77 202.478 332.677 202.082 332.508 201.784 332.014 201.392 331.325 200.73 330.302 200.103 328.981 200.103 328.287 200.103 327.86 200.432 327.691 200.965 327.531 201.455 327.758 201.922 328.118 202.082 329.172 202.874 329.835 203.639 329.835 205.649L329.835 223.948C329.835 224.246 329.897 224.637 330.035 225.1 330.164 225.598 330.462 225.82 330.889 225.82 331.943 225.82 332.806 224.766 332.806 222.529L332.806 213.393 333.656 213.295 334.518 213.162 336.235 212.904 336.235 225.82C336.235 226.154 336.298 226.545 336.427 227.012 336.596 227.471 336.862 227.706 337.289 227.706 338.344 227.706 339.202 226.652 339.202 224.406ZM320.77 206.267C319.32 206.374 318.755 206.303 317.736 206.076 317.074 205.938 316.713 206.601 316.713 207.366 316.713 208.055 317.011 208.941 317.639 209.11 317.799 209.207 317.905 209.27 318.128 209.367 318.395 209.399 318.791 209.439 319.618 209.305 320.534 209.176 321.037 209.078 321.557 208.941 322.055 208.847 322.451 208.749 323.207 208.643 322.678 210.92 321.726 212.997 320.312 214.874 318.884 216.76 317.372 218.375 315.69 219.762 315.201 220.154 315.423 220.781 315.988 221.146 316.616 221.506 317.532 221.573 318.493 220.91 320.236 219.624 321.953 217.943 323.274 215.968 323.963 217.022 324.764 218.014 325.818 218.833 326.837 219.762 328.024 219.762 328.652 218.997 329.31 218.205 329.208 217.249 328.714 216.631L327.82 216.066C327.531 215.897 327.13 215.67 326.837 215.408 325.551 214.585 325.253 214.118 324.826 213.424 325.52 211.978 326.308 210.328 326.872 208.345 327.13 207.459 326.766 206.734 326.21 206.205 325.649 205.68 324.795 205.449 324.133 205.48L324.101 205.48C324.101 204.915 324.03 204.426 323.932 203.937 323.834 203.434 323.634 203.043 323.305 202.745 322.611 202.082 321.366 201.486 320.076 201.486 319.387 201.486 318.991 201.784 318.724 202.318 318.595 202.807 318.822 203.305 319.182 203.47 319.578 203.732 320.014 203.999 320.312 204.395 320.601 204.786 320.832 205.351 320.832 206.174L320.832 206.267Z" stroke="#ED4B00" stroke-width="1.23646" fill="none"/></g></g></svg>